<?xml version="1.0" standalone="no"?>
<!DOCTYPE svg PUBLIC "-//W3C//DTD SVG 20010904//EN"
 "http://www.w3.org/TR/2001/REC-SVG-20010904/DTD/svg10.dtd">
<svg version="1.0" xmlns="http://www.w3.org/2000/svg"
 width="260.000000pt" height="260.000000pt" viewBox="0 0 260.000000 260.000000"
 preserveAspectRatio="xMidYMid meet">
<metadata>
Created by potrace 1.14, written by Peter Selinger 2001-2017
</metadata>
<g transform="translate(0.000000,260.000000) scale(0.100000,-0.100000)"
fill="#000000" stroke="none">
<path d="M1088 2585 c-2 -2 -18 -6 -35 -10 -18 -3 -43 -9 -57 -15 -15 -5 -26
-8 -26 -6 0 8 -144 -66 -188 -95 -24 -16 -47 -29 -52 -29 -4 0 -10 -4 -12 -8
-1 -4 -23 -23 -48 -42 -24 -19 -54 -44 -65 -55 -12 -11 -45 -42 -74 -68 -28
-27 -82 -85 -119 -130 -37 -45 -70 -83 -74 -85 -5 -2 -8 -10 -8 -17 0 -8 -6
-20 -13 -27 -15 -15 -47 -81 -47 -97 0 -6 -4 -11 -9 -11 -7 0 -16 -28 -21 -65
-1 -2 -7 -20 -16 -40 -8 -19 -14 -37 -14 -40 0 -3 0 -6 -1 -7 -1 -4 -5 -24
-13 -63 -16 -71 -21 -138 -20 -265 1 -109 9 -265 14 -265 7 0 2 -76 -5 -79 -5
-3 -4 -5 3 -5 7 -1 10 -6 6 -13 -4 -6 -9 -25 -10 -42 -9 -102 -33 -178 -74
-234 -25 -34 -27 -41 -13 -46 19 -8 113 22 113 35 0 5 6 9 14 9 7 0 33 18 57
41 l43 41 13 -29 c7 -15 22 -48 32 -73 24 -54 61 -120 79 -138 6 -7 12 -16 12
-20 0 -4 24 -32 53 -63 55 -59 133 -116 155 -113 25 3 27 4 17 12 -13 9 -56
124 -44 116 5 -3 9 -1 9 5 0 5 11 6 27 2 27 -7 32 -19 34 -83 1 -21 7 -39 15
-42 11 -4 12 -10 3 -30 -16 -34 -3 -74 26 -88 14 -6 25 -14 25 -18 0 -4 -20
-25 -45 -46 -83 -70 -97 -120 -35 -118 14 0 33 -3 43 -8 9 -5 61 -10 115 -11
53 -2 103 -6 109 -10 13 -8 26 -11 86 -22 27 -5 125 -12 245 -18 29 -1 56 -8
60 -14 13 -21 63 -35 78 -22 11 9 14 9 14 0 0 -7 4 -9 10 -6 5 3 20 8 32 10
25 5 38 23 31 42 -3 8 -2 13 3 12 41 -7 61 18 70 86 2 17 6 39 8 50 3 11 5 30
5 43 1 21 2 22 25 7 28 -19 130 -22 150 -6 7 6 16 8 19 4 4 -3 7 -1 7 6 0 7 4
10 9 6 15 -8 59 56 64 94 4 20 -1 46 -10 66 -17 36 -11 70 11 62 8 -3 17 -3
21 1 4 4 10 7 13 7 30 3 52 21 66 55 9 22 21 40 27 40 9 0 77 46 89 61 3 3 24
8 47 12 l43 5 0 -52 c0 -32 6 -61 17 -76 12 -17 13 -25 4 -28 -41 -14 -99
-115 -92 -163 1 -12 -9 -18 -38 -23 -78 -12 -144 -130 -101 -181 13 -16 50
-21 50 -7 0 16 55 70 75 73 24 3 96 -10 110 -20 40 -29 82 11 67 64 -8 25 -9
69 -3 108 1 8 54 65 61 65 3 0 18 5 33 11 16 6 38 11 50 11 12 1 31 6 42 13
19 11 21 18 17 55 -1 6 -11 12 -21 12 -11 0 -26 7 -35 15 -8 8 -19 15 -24 15
-6 0 -22 14 -36 31 -19 22 -25 38 -21 57 14 64 25 92 36 92 6 0 8 4 5 9 -4 5
-2 11 2 13 5 1 25 27 45 56 28 42 35 58 27 72 -11 20 -40 35 -40 20 0 -6 -3
-9 -8 -8 -8 3 -93 -32 -102 -42 -15 -17 -35 -3 -34 25 2 44 14 148 19 154 1 3
6 22 9 42 10 68 17 73 37 32 37 -78 51 -117 50 -150 -1 -25 10 -35 25 -25 40
26 52 224 20 331 -9 30 -16 56 -16 58 0 1 15 9 33 17 69 29 104 86 52 85 -56
-2 -131 36 -148 75 -28 63 -53 143 -63 206 -10 59 -28 130 -51 200 -14 41 -27
85 -30 98 -3 12 -9 22 -14 22 -5 0 -9 5 -9 11 0 13 -69 112 -82 117 -4 2 -8 8
-8 13 0 18 -191 199 -209 199 -6 0 -14 6 -18 14 -12 20 -160 103 -223 125 -30
11 -75 21 -100 23 -25 1 -48 8 -52 13 -5 7 -8 6 -8 -1 0 -6 -17 -10 -37 -9
-43 1 -119 -12 -171 -29 -17 -6 -33 -1 -61 18 -21 15 -46 28 -57 30 -10 2 -31
9 -45 14 -15 6 -29 9 -31 7z m862 -1883 c0 -13 -12 -22 -22 -16 -10 6 -1 24
13 24 5 0 9 -4 9 -8z m-1313 -54 c6 -7 13 -22 17 -32 6 -16 4 -17 -9 -6 -21
18 -38 50 -27 50 5 0 14 -6 19 -12z m318 -92 l26 -14 -29 -30 c-16 -17 -37
-40 -45 -52 l-15 -22 -21 21 c-27 27 -26 31 6 58 14 13 23 23 18 23 -4 0 -2 7
5 15 15 18 21 19 55 1z"/>
<path d="M1884 242 c-6 -4 -21 -28 -33 -54 -17 -37 -19 -52 -11 -74 8 -21 15
-25 33 -20 12 3 25 6 29 6 3 0 9 13 13 30 4 17 10 30 15 30 12 0 18 44 9 68
-8 22 -34 28 -55 14z"/>
</g>
</svg>
